<svg width="1429" height="957" viewBox="0 0 1429 957" fill="none" xmlns="http://www.w3.org/2000/svg">
<path d="M325.407 236.2C325.607 235.6 324.707 222.2 322.707 196L321.207 177.4H294.207L288.207 227.8H234.507L272.907 9.99999H350.607L377.907 235.3C357.507 236.3 342.707 236.8 333.507 236.8C328.107 236.8 325.407 236.6 325.407 236.2ZM317.307 126.7C315.307 105.3 313.607 84.4 312.207 64L302.007 127.9L317.307 126.7ZM529.496 204.7C523.496 211.3 515.296 216.2 504.896 219.4C494.696 222.6 483.196 224.2 470.396 224.2C453.796 224.2 437.496 221.7 421.496 216.7C405.496 211.7 392.896 204.9 383.696 196.3C396.696 180.7 407.796 166.8 416.996 154.6C423.596 157.6 433.296 161.4 446.096 166C459.096 170.6 469.396 172.9 476.996 172.9C483.596 172.9 486.896 170.8 486.896 166.6C486.896 165 486.496 163.4 485.696 161.8C483.896 157.4 480.496 153 475.496 148.6C470.496 144.2 463.296 138.7 453.896 132.1C443.296 124.5 434.496 117.8 427.496 112C420.496 106 414.496 99.2 409.496 91.6C404.696 83.8 402.296 75.4 402.296 66.4C402.296 59.6 403.696 53 406.496 46.6C411.696 35.2 419.596 25.4 430.196 17.2C440.996 8.79999 454.096 4.59999 469.496 4.59999C493.696 4.59999 520.996 16 551.396 38.8L534.296 81.7C524.096 73.9 513.696 67.3 503.096 61.9C492.696 56.5 483.996 53.8 476.996 53.8C473.596 53.8 470.596 54.6 467.996 56.2C462.396 59.6 459.596 63.5 459.596 67.9C459.596 72.3 462.196 76.9 467.396 81.7C472.596 86.5 480.896 93.1 492.296 101.5C503.696 109.9 512.996 117.2 520.196 123.4C527.396 129.4 533.596 136.3 538.796 144.1C543.996 151.9 546.596 160 546.596 168.4C546.596 180.4 540.896 192.5 529.496 204.7ZM655.583 236.2C655.783 235.6 654.883 222.2 652.883 196L651.383 177.4H624.383L618.383 227.8H564.683L603.083 9.99999H680.783L708.083 235.3C687.683 236.3 672.883 236.8 663.683 236.8C658.283 236.8 655.583 236.6 655.583 236.2ZM647.483 126.7C645.483 105.3 643.783 84.4 642.383 64L632.183 127.9L647.483 126.7ZM831.472 219.1L773.872 121.9V215.2H723.172L726.472 18.1H772.072L835.072 139.6L832.972 28.3L882.472 24.4V220.3L831.472 219.1ZM942.488 64.3H898.688L895.388 17.5L1051.09 10.9L1047.19 64.6L994.988 64.3V222.7H940.388L942.488 64.3ZM1106.29 226.9C1089.89 222.9 1077.89 211.6 1070.29 193C1062.69 174.2 1058.89 151 1058.89 123.4C1058.89 103.8 1060.59 83.6 1063.99 62.8C1067.59 41.8 1072.29 22.9 1078.09 6.09999L1078.39 6.39998V6.09999L1185.79 0.0999908L1182.49 46.6H1117.09C1116.09 52.2 1114.89 64.2 1113.49 82.6L1112.59 91.9L1172.29 88.3L1169.29 134.5H1112.59C1113.99 148.7 1117.59 159.6 1123.39 167.2C1129.39 174.8 1137.19 178.6 1146.79 178.6C1156.79 178.6 1168.09 174.5 1180.69 166.3L1194.79 208.3C1186.19 214.5 1176.09 219.7 1164.49 223.9C1153.09 228.3 1141.59 230.5 1129.99 230.5C1121.39 230.5 1113.49 229.3 1106.29 226.9ZM150.628 365.5C164.028 363.1 177.928 361.9 192.328 361.9C217.928 361.9 237.328 366.2 250.528 374.8C265.328 384.6 272.728 396.7 272.728 411.1C272.728 426.1 264.928 443.1 249.328 462.1C259.328 467.3 268.628 473.9 277.228 481.9C285.828 489.9 291.428 499.4 294.028 510.4C295.028 514.4 295.528 518.1 295.528 521.5C295.528 534.3 289.628 545.9 277.828 556.3C266.228 566.5 249.228 574.7 226.828 580.9C204.628 587.1 178.228 590.4 147.628 590.8L150.628 365.5ZM201.928 540.4C225.728 535.2 237.628 528.1 237.628 519.1C237.628 509.9 225.728 498.9 201.928 486.1V540.4ZM201.928 450.4C215.728 435.4 222.628 423.7 222.628 415.3C222.628 406.5 215.728 400.9 201.928 398.5V450.4ZM407.001 578.5C402.801 580.5 397.801 582.2 392.001 583.6C386.201 585 380.401 585.7 374.601 585.7C360.401 585.7 347.201 580.9 335.001 571.3C323.001 561.5 313.701 544.3 307.101 519.7C304.501 506.5 303.201 494 303.201 482.2C303.201 459.4 307.501 439.9 316.101 423.7C324.901 407.5 335.601 395.4 348.201 387.4C363.001 378 378.201 373.3 393.801 373.3C407.401 373.3 419.901 376.8 431.301 383.8C442.901 390.8 452.101 401.1 458.901 414.7C465.701 428.1 469.101 444.2 469.101 463C469.101 492 463.101 516.3 451.101 535.9C439.101 555.5 424.401 569.7 407.001 578.5ZM355.701 491.5C357.701 503.9 361.201 512.4 366.201 517C371.201 521.6 376.501 523.9 382.101 523.9C385.101 523.9 387.901 523.4 390.501 522.4C396.701 519.6 402.201 514.5 407.001 507.1C411.801 499.5 414.801 489.9 416.001 478.3C416.201 476.5 416.301 474 416.301 470.8C416.301 459 413.501 449.6 407.901 442.6C402.301 435.6 395.601 432.1 387.801 432.1C382.801 432.1 378.101 433.4 373.701 436C368.501 439.2 364.001 444.5 360.201 451.9C356.601 459.3 354.801 468.4 354.801 479.2C354.801 482.8 355.101 486.9 355.701 491.5ZM559.636 596.2C559.836 595.6 558.936 582.2 556.936 556L555.436 537.4H528.436L522.436 587.8H468.736L507.136 370H584.836L612.136 595.3C591.736 596.3 576.936 596.8 567.736 596.8C562.336 596.8 559.636 596.6 559.636 596.2ZM551.536 486.7C549.536 465.3 547.836 444.4 546.436 424L536.236 487.9L551.536 486.7ZM657.283 424.3H613.483L610.183 377.5L765.883 370.9L761.983 424.6L709.783 424.3V582.7H655.183L657.283 424.3ZM821.081 586.9C804.681 582.9 792.681 571.6 785.081 553C777.481 534.2 773.681 511 773.681 483.4C773.681 463.8 775.381 443.6 778.781 422.8C782.381 401.8 787.081 382.9 792.881 366.1L793.181 366.4V366.1L900.581 360.1L897.281 406.6H831.881C830.881 412.2 829.681 424.2 828.281 442.6L827.381 451.9L887.081 448.3L884.081 494.5H827.381C828.781 508.7 832.381 519.6 838.181 527.2C844.181 534.8 851.981 538.6 861.581 538.6C871.581 538.6 882.881 534.5 895.481 526.3L909.581 568.3C900.981 574.5 890.881 579.7 879.281 583.9C867.881 588.3 856.381 590.5 844.781 590.5C836.181 590.5 828.281 589.3 821.081 586.9ZM1032.89 579.1L975.288 481.9V575.2H924.588L927.888 378.1H973.488L1036.49 499.6L1034.39 388.3L1083.89 384.4V580.3L1032.89 579.1ZM1217.7 581.5C1208.1 585.1 1198 586.9 1187.4 586.9C1174.8 586.9 1162.7 584.4 1151.1 579.4C1139.7 574.2 1129.6 566.4 1120.8 556C1112.2 545.6 1106 532.8 1102.2 517.6C1099.8 504.6 1098.6 492.2 1098.6 480.4C1098.6 457.6 1102.7 437.4 1110.9 419.8C1119.1 402 1130.3 388.2 1144.5 378.4C1158.9 368.6 1175 363.7 1192.8 363.7C1215.8 363.7 1239.2 372.2 1263 389.2L1237.8 433C1225.4 419 1212.7 412 1199.7 412C1190.7 412 1182.4 415.1 1174.8 421.3C1167.2 427.5 1161.2 435.5 1156.8 445.3C1152.4 455.1 1150.2 465 1150.2 475C1150.2 490.2 1152 502.8 1155.6 512.8C1159.4 522.6 1164.2 529.9 1170 534.7C1176 539.3 1182.5 541.6 1189.5 541.6C1195.9 541.6 1202 539.8 1207.8 536.2C1213.8 532.4 1218.8 527.2 1222.8 520.6C1226.8 514 1229.1 506.5 1229.7 498.1H1191.9C1192.5 496.7 1193.7 483.4 1195.5 458.2H1279.2C1279.2 476.6 1278 493.3 1275.6 508.3C1273.2 523.3 1267.4 537.6 1258.2 551.2C1249.2 564.6 1235.7 574.7 1217.7 581.5ZM91.4715 956.2C91.6715 955.6 90.7715 942.2 88.7715 916L87.2715 897.4H60.2715L54.2715 947.8H0.571484L38.9715 730H116.671L143.971 955.3C123.571 956.3 108.771 956.8 99.5715 956.8C94.1715 956.8 91.4715 956.6 91.4715 956.2ZM83.3715 846.7C81.3715 825.3 79.6715 804.4 78.2715 784L68.0715 847.9L83.3715 846.7ZM231.501 943C210.501 943 194.201 938.3 182.601 928.9C171.001 919.3 163.101 906.9 158.901 891.7C154.901 876.5 152.901 858.5 152.901 837.7C152.901 827.1 153.501 811.8 154.701 791.8C155.701 775.4 156.201 761.8 156.201 751H212.601C213.001 751 213.101 752.9 212.901 756.7C212.701 760.5 212.401 765 212.001 770.2C210.201 791.8 209.301 810.3 209.301 825.7C209.301 869.5 216.701 891.4 231.501 891.4C243.101 891.4 251.101 881.4 255.501 861.4C259.901 841.2 262.101 817.1 262.101 789.1C262.101 773.1 261.601 758 260.601 743.8H311.601C311.801 746.2 312.201 751.7 312.801 760.3C313.401 768.9 313.701 778.7 313.701 789.7C313.701 830.3 307.901 866.1 296.301 897.1C284.701 928.1 263.101 943.4 231.501 943ZM447.489 941.5C437.889 945.1 427.789 946.9 417.189 946.9C404.589 946.9 392.489 944.4 380.889 939.4C369.489 934.2 359.389 926.4 350.589 916C341.989 905.6 335.789 892.8 331.989 877.6C329.589 864.6 328.389 852.2 328.389 840.4C328.389 817.6 332.489 797.4 340.689 779.8C348.889 762 360.089 748.2 374.289 738.4C388.689 728.6 404.789 723.7 422.589 723.7C445.589 723.7 468.989 732.2 492.789 749.2L467.589 793C455.189 779 442.489 772 429.489 772C420.489 772 412.189 775.1 404.589 781.3C396.989 787.5 390.989 795.5 386.589 805.3C382.189 815.1 379.989 825 379.989 835C379.989 850.2 381.789 862.8 385.389 872.8C389.189 882.6 393.989 889.9 399.789 894.7C405.789 899.3 412.289 901.6 419.289 901.6C425.689 901.6 431.789 899.8 437.589 896.2C443.589 892.4 448.589 887.2 452.589 880.6C456.589 874 458.889 866.5 459.489 858.1H421.689C422.289 856.7 423.489 843.4 425.289 818.2H508.989C508.989 836.6 507.789 853.3 505.389 868.3C502.989 883.3 497.189 897.6 487.989 911.2C478.989 924.6 465.489 934.7 447.489 941.5ZM604.157 943C583.157 943 566.857 938.3 555.257 928.9C543.657 919.3 535.757 906.9 531.557 891.7C527.557 876.5 525.557 858.5 525.557 837.7C525.557 827.1 526.157 811.8 527.357 791.8C528.357 775.4 528.857 761.8 528.857 751H585.257C585.657 751 585.757 752.9 585.557 756.7C585.357 760.5 585.057 765 584.657 770.2C582.857 791.8 581.957 810.3 581.957 825.7C581.957 869.5 589.357 891.4 604.157 891.4C615.757 891.4 623.757 881.4 628.157 861.4C632.557 841.2 634.757 817.1 634.757 789.1C634.757 773.1 634.257 758 633.257 743.8H684.257C684.457 746.2 684.857 751.7 685.457 760.3C686.057 768.9 686.357 778.7 686.357 789.7C686.357 830.3 680.557 866.1 668.957 897.1C657.357 928.1 635.757 943.4 604.157 943ZM828.764 924.7C822.764 931.3 814.564 936.2 804.164 939.4C793.964 942.6 782.464 944.2 769.664 944.2C753.064 944.2 736.764 941.7 720.764 936.7C704.764 931.7 692.164 924.9 682.964 916.3C695.964 900.7 707.064 886.8 716.264 874.6C722.864 877.6 732.564 881.4 745.364 886C758.364 890.6 768.664 892.9 776.264 892.9C782.864 892.9 786.164 890.8 786.164 886.6C786.164 885 785.764 883.4 784.964 881.8C783.164 877.4 779.764 873 774.764 868.6C769.764 864.2 762.564 858.7 753.164 852.1C742.564 844.5 733.764 837.8 726.764 832C719.764 826 713.764 819.2 708.764 811.6C703.964 803.8 701.564 795.4 701.564 786.4C701.564 779.6 702.964 773 705.764 766.6C710.964 755.2 718.864 745.4 729.464 737.2C740.264 728.8 753.364 724.6 768.764 724.6C792.964 724.6 820.264 736 850.664 758.8L833.564 801.7C823.364 793.9 812.964 787.3 802.364 781.9C791.964 776.5 783.264 773.8 776.264 773.8C772.864 773.8 769.864 774.6 767.264 776.2C761.664 779.6 758.864 783.5 758.864 787.9C758.864 792.3 761.464 796.9 766.664 801.7C771.864 806.5 780.164 813.1 791.564 821.5C802.964 829.9 812.264 837.2 819.464 843.4C826.664 849.4 832.864 856.3 838.064 864.1C843.264 871.9 845.864 880 845.864 888.4C845.864 900.4 840.164 912.5 828.764 924.7ZM908.65 784.3H864.85L861.55 737.5L1017.25 730.9L1013.35 784.6L961.15 784.3V942.7H906.55L908.65 784.3ZM1041.63 725.2H1092.93V943H1038.33L1041.63 725.2ZM1222.15 939.1L1164.55 841.9V935.2H1113.85L1117.15 738.1H1162.75L1225.75 859.6L1223.65 748.3L1273.15 744.4V940.3L1222.15 939.1ZM1340.22 946.9C1323.82 942.9 1311.82 931.6 1304.22 913C1296.62 894.2 1292.82 871 1292.82 843.4C1292.82 823.8 1294.52 803.6 1297.92 782.8C1301.52 761.8 1306.22 742.9 1312.02 726.1L1312.32 726.4V726.1L1419.72 720.1L1416.42 766.6H1351.02C1350.02 772.2 1348.82 784.2 1347.42 802.6L1346.52 811.9L1406.22 808.3L1403.22 854.5H1346.52C1347.92 868.7 1351.52 879.6 1357.32 887.2C1363.32 894.8 1371.12 898.6 1380.72 898.6C1390.72 898.6 1402.02 894.5 1414.62 886.3L1428.72 928.3C1420.12 934.5 1410.02 939.7 1398.42 943.9C1387.02 948.3 1375.52 950.5 1363.92 950.5C1355.32 950.5 1347.42 949.3 1340.22 946.9Z" fill="white"/>
</svg>
